{
    "asset" : {
        "generator" : "Khronos glTF Blender I/O v1.7.33",
        "version" : "2.0"
    },
    "extensionsUsed" : [
        "KHR_materials_transmission"
    ],
    "scene" : 0,
    "scenes" : [
        {
            "name" : "Scene",
            "nodes" : [
                7
            ]
        }
    ],
    "nodes" : [
        {
            "mesh" : 0,
            "name" : "3034.dat",
            "rotation" : [
                -0.7037019729614258,
                -0.06930858641862869,
                -0.06930860131978989,
                0.7037017941474915
            ],
            "translation" : [
                -25.889007568359375,
                3.1999974250793457,
                -62.45822525024414
            ]
        },
        {
            "mesh" : 1,
            "name" : "3229b.dat",
            "rotation" : [
                -0.546699047088623,
                0.4484643042087555,
                0.4484643340110779,
                0.5466989278793335
            ],
            "translation" : [
                -45.46834945678711,
                9.613715171813965,
                -66.34811401367188
            ]
        },
        {
            "mesh" : 2,
            "name" : "3230b.dat",
            "rotation" : [
                -0.5464399456977844,
                0.44877997040748596,
                0.44878000020980835,
                0.5464398860931396
            ],
            "translation" : [
                -6.309803009033203,
                9.613715171813965,
                -58.529170989990234
            ]
        },
        {
            "mesh" : 3,
            "name" : "3241a.dat.001",
            "rotation" : [
                -0.5000000596046448,
                0.5,
                0.5,
                0.5
            ],
            "translation" : [
                -31.999448776245117,
                9.598094940185547,
                -63.99574661254883
            ]
        },
        {
            "mesh" : 4,
            "name" : "3241a.dat.004",
            "rotation" : [
                -0.5000000596046448,
                0.5,
                0.5,
                0.5
            ],
            "translation" : [
                -31.999448776245117,
                9.598094940185547,
                -63.99574661254883
            ]
        },
        {
            "mesh" : 5,
            "name" : "3460.dat",
            "rotation" : [
                -0.7071068286895752,
                0,
                0,
                0.7071067094802856
            ],
            "translation" : [
                -31.999998092651367,
                3.1999998092651367,
                -4.000000476837158
            ]
        },
        {
            "mesh" : 5,
            "name" : "3460.dat.001",
            "rotation" : [
                -0.6935200095176697,
                -0.13794969022274017,
                -0.13794972002506256,
                0.6935198307037354
            ],
            "translation" : [
                -9.172185897827148,
                3.2000010013580322,
                -118.76319122314453
            ]
        },
        {
            "children" : [
                0,
                1,
                2,
                3,
                4,
                5,
                6
            ],
            "name" : "Empty",
            "translation" : [
                32,
                0,
                0
            ]
        }
    ],
    "materials" : [
        {
            "doubleSided" : true,
            "emissiveFactor" : [
                1,
                1,
                1
            ],
            "emissiveTexture" : {
                "index" : 0
            },
            "extensions" : {
                "KHR_materials_transmission" : {
                    "transmissionFactor" : 1,
                    "transmissionTexture" : {
                        "index" : 1
                    }
                }
            },
            "name" : "Lego Standard",
            "pbrMetallicRoughness" : {
                "baseColorTexture" : {
                    "index" : 2
                },
                "metallicRoughnessTexture" : {
                    "index" : 3
                }
            }
        }
    ],
    "meshes" : [
        {
            "name" : "Mesh_3034.dat_7",
            "primitives" : [
                {
                    "attributes" : {
                        "POSITION" : 0,
                        "NORMAL" : 1,
                        "TEXCOORD_0" : 2
                    },
                    "indices" : 3,
                    "material" : 0
                }
            ]
        },
        {
            "name" : "Mesh_3229b.dat_7",
            "primitives" : [
                {
                    "attributes" : {
                        "POSITION" : 4,
                        "NORMAL" : 5,
                        "TEXCOORD_0" : 6
                    },
                    "indices" : 7,
                    "material" : 0
                }
            ]
        },
        {
            "name" : "Mesh_3230b.dat_7",
            "primitives" : [
                {
                    "attributes" : {
                        "POSITION" : 8,
                        "NORMAL" : 9,
                        "TEXCOORD_0" : 10
                    },
                    "indices" : 11,
                    "material" : 0
                }
            ]
        },
        {
            "name" : "Mesh_3241a.dat_7.001",
            "primitives" : [
                {
                    "attributes" : {
                        "POSITION" : 12,
                        "NORMAL" : 13,
                        "TEXCOORD_0" : 14
                    },
                    "indices" : 15,
                    "material" : 0
                }
            ]
        },
        {
            "name" : "Mesh_3241a.dat_7",
            "primitives" : [
                {
                    "attributes" : {
                        "POSITION" : 16,
                        "NORMAL" : 17,
                        "TEXCOORD_0" : 18
                    },
                    "indices" : 19,
                    "material" : 0
                }
            ]
        },
        {
            "name" : "Mesh_3460.dat_7",
            "primitives" : [
                {
                    "attributes" : {
                        "POSITION" : 20,
                        "NORMAL" : 21,
                        "TEXCOORD_0" : 22
                    },
                    "indices" : 23,
                    "material" : 0
                }
            ]
        }
    ],
    "textures" : [
        {
            "sampler" : 0,
            "source" : 0
        },
        {
            "sampler" : 0,
            "source" : 1
        },
        {
            "sampler" : 0,
            "source" : 2
        },
        {
            "sampler" : 0,
            "source" : 3
        }
    ],
    "images" : [
        {
            "bufferView" : 4,
            "mimeType" : "image/png",
            "name" : "lego-e"
        },
        {
            "bufferView" : 5,
            "mimeType" : "image/png",
            "name" : "lego-t"
        },
        {
            "bufferView" : 6,
            "mimeType" : "image/png",
            "name" : "lego-c"
        },
        {
            "bufferView" : 7,
            "mimeType" : "image/png",
            "name" : "lego-m-lego-r"
        }
    ],
    "accessors" : [
        {
            "bufferView" : 0,
            "componentType" : 5126,
            "count" : 1804,
            "max" : [
                32,
                8,
                1.600000023841858
            ],
            "min" : [
                -32,
                -8,
                -3.200000047683716
            ],
            "type" : "VEC3"
        },
        {
            "bufferView" : 1,
            "componentType" : 5126,
            "count" : 1804,
            "type" : "VEC3"
        },
        {
            "bufferView" : 2,
            "componentType" : 5126,
            "count" : 1804,
            "type" : "VEC2"
        },
        {
            "bufferView" : 3,
            "componentType" : 5123,
            "count" : 2244,
            "type" : "SCALAR"
        },
        {
            "bufferView" : 8,
            "componentType" : 5126,
            "count" : 5128,
            "max" : [
                67.11199951171875,
                3.996000051498413,
                0
            ],
            "min" : [
                -67.11199951171875,
                -10.456000328063965,
                -6.400000095367432
            ],
            "type" : "VEC3"
        },
        {
            "bufferView" : 9,
            "componentType" : 5126,
            "count" : 5128,
            "type" : "VEC3"
        },
        {
            "bufferView" : 10,
            "componentType" : 5126,
            "count" : 5128,
            "type" : "VEC2"
        },
        {
            "bufferView" : 11,
            "componentType" : 5123,
            "count" : 5808,
            "type" : "SCALAR"
        },
        {
            "bufferView" : 12,
            "componentType" : 5126,
            "count" : 1516,
            "max" : [
                59.30735778808594,
                4,
                0
            ],
            "min" : [
                -59.30735778808594,
                -9.6876220703125,
                -6.400000095367432
            ],
            "type" : "VEC3"
        },
        {
            "bufferView" : 13,
            "componentType" : 5126,
            "count" : 1516,
            "type" : "VEC3"
        },
        {
            "bufferView" : 14,
            "componentType" : 5126,
            "count" : 1516,
            "type" : "VEC2"
        },
        {
            "bufferView" : 15,
            "componentType" : 5123,
            "count" : 1662,
            "type" : "SCALAR"
        },
        {
            "bufferView" : 16,
            "componentType" : 5126,
            "count" : 3830,
            "max" : [
                61.520263671875,
                8.003650665283203,
                -1.5999999046325684
            ],
            "min" : [
                -64,
                -31.749439239501953,
                -6.400000095367432
            ],
            "type" : "VEC3"
        },
        {
            "bufferView" : 17,
            "componentType" : 5126,
            "count" : 3830,
            "type" : "VEC3"
        },
        {
            "bufferView" : 18,
            "componentType" : 5126,
            "count" : 3830,
            "type" : "VEC2"
        },
        {
            "bufferView" : 19,
            "componentType" : 5123,
            "count" : 4104,
            "type" : "SCALAR"
        },
        {
            "bufferView" : 20,
            "componentType" : 5126,
            "count" : 4562,
            "max" : [
                60.90797424316406,
                6.4037275314331055,
                0
            ],
            "min" : [
                -64,
                -30.27123260498047,
                -4.900000095367432
            ],
            "type" : "VEC3"
        },
        {
            "bufferView" : 21,
            "componentType" : 5126,
            "count" : 4562,
            "type" : "VEC3"
        },
        {
            "bufferView" : 22,
            "componentType" : 5126,
            "count" : 4562,
            "type" : "VEC2"
        },
        {
            "bufferView" : 23,
            "componentType" : 5123,
            "count" : 5184,
            "type" : "SCALAR"
        },
        {
            "bufferView" : 24,
            "componentType" : 5126,
            "count" : 881,
            "max" : [
                32,
                4,
                1.600000023841858
            ],
            "min" : [
                -32,
                -4,
                -3.200000047683716
            ],
            "type" : "VEC3"
        },
        {
            "bufferView" : 25,
            "componentType" : 5126,
            "count" : 881,
            "type" : "VEC3"
        },
        {
            "bufferView" : 26,
            "componentType" : 5126,
            "count" : 881,
            "type" : "VEC2"
        },
        {
            "bufferView" : 27,
            "componentType" : 5123,
            "count" : 1164,
            "type" : "SCALAR"
        }
    ],
    "bufferViews" : [
        {
            "buffer" : 0,
            "byteLength" : 21648,
            "byteOffset" : 0
        },
        {
            "buffer" : 0,
            "byteLength" : 21648,
            "byteOffset" : 21648
        },
        {
            "buffer" : 0,
            "byteLength" : 14432,
            "byteOffset" : 43296
        },
        {
            "buffer" : 0,
            "byteLength" : 4488,
            "byteOffset" : 57728
        },
        {
            "buffer" : 0,
            "byteLength" : 601,
            "byteOffset" : 62216
        },
        {
            "buffer" : 0,
            "byteLength" : 601,
            "byteOffset" : 62820
        },
        {
            "buffer" : 0,
            "byteLength" : 657,
            "byteOffset" : 63424
        },
        {
            "buffer" : 0,
            "byteLength" : 121,
            "byteOffset" : 64084
        },
        {
            "buffer" : 0,
            "byteLength" : 61536,
            "byteOffset" : 64208
        },
        {
            "buffer" : 0,
            "byteLength" : 61536,
            "byteOffset" : 125744
        },
        {
            "buffer" : 0,
            "byteLength" : 41024,
            "byteOffset" : 187280
        },
        {
            "buffer" : 0,
            "byteLength" : 11616,
            "byteOffset" : 228304
        },
        {
            "buffer" : 0,
            "byteLength" : 18192,
            "byteOffset" : 239920
        },
        {
            "buffer" : 0,
            "byteLength" : 18192,
            "byteOffset" : 258112
        },
        {
            "buffer" : 0,
            "byteLength" : 12128,
            "byteOffset" : 276304
        },
        {
            "buffer" : 0,
            "byteLength" : 3324,
            "byteOffset" : 288432
        },
        {
            "buffer" : 0,
            "byteLength" : 45960,
            "byteOffset" : 291756
        },
        {
            "buffer" : 0,
            "byteLength" : 45960,
            "byteOffset" : 337716
        },
        {
            "buffer" : 0,
            "byteLength" : 30640,
            "byteOffset" : 383676
        },
        {
            "buffer" : 0,
            "byteLength" : 8208,
            "byteOffset" : 414316
        },
        {
            "buffer" : 0,
            "byteLength" : 54744,
            "byteOffset" : 422524
        },
        {
            "buffer" : 0,
            "byteLength" : 54744,
            "byteOffset" : 477268
        },
        {
            "buffer" : 0,
            "byteLength" : 36496,
            "byteOffset" : 532012
        },
        {
            "buffer" : 0,
            "byteLength" : 10368,
            "byteOffset" : 568508
        },
        {
            "buffer" : 0,
            "byteLength" : 10572,
            "byteOffset" : 578876
        },
        {
            "buffer" : 0,
            "byteLength" : 10572,
            "byteOffset" : 589448
        },
        {
            "buffer" : 0,
            "byteLength" : 7048,
            "byteOffset" : 600020
        },
        {
            "buffer" : 0,
            "byteLength" : 2328,
            "byteOffset" : 607068
        }
    ],
    "samplers" : [
        {
            "magFilter" : 9728,
            "minFilter" : 9984
        }
    ],
    "buffers" : [
        {
            "byteLength" : 609396,
            "uri" : "data:application/octet-stream;base64,"
        }
    ]
}
