{
    "asset" : {
        "generator" : "Khronos glTF Blender I/O v1.8.19",
        "version" : "2.0"
    },
    "scene" : 0,
    "scenes" : [
        {
            "name" : "Scene",
            "nodes" : [
                0,
                6,
                8
            ]
        }
    ],
    "nodes" : [
        {
            "name" : "_Scale_1_38_mm"
        },
        {
            "mesh" : 0,
            "name" : "3034.dat",
            "rotation" : [
                -0.7037020325660706,
                -0.06930860877037048,
                -0.06930860131978989,
                0.7037017345428467
            ],
            "translation" : [
                6.110992431640625,
                3.1999974250793457,
                -62.45822525024414
            ]
        },
        {
            "mesh" : 1,
            "name" : "3229b.dat",
            "rotation" : [
                -0.546699047088623,
                0.4484643042087555,
                0.4484643340110779,
                0.5466988682746887
            ],
            "translation" : [
                -13.46834945678711,
                9.613715171813965,
                -66.34811401367188
            ]
        },
        {
            "mesh" : 2,
            "name" : "3230b.dat",
            "rotation" : [
                -0.5464398860931396,
                0.44877997040748596,
                0.44878000020980835,
                0.5464397668838501
            ],
            "translation" : [
                25.690196990966797,
                9.613715171813965,
                -58.529170989990234
            ]
        },
        {
            "mesh" : 3,
            "name" : "3460.dat",
            "rotation" : [
                -0.7071068286895752,
                0,
                0,
                0.7071067094802856
            ],
            "translation" : [
                0,
                3.1999998092651367,
                -4.000000476837158
            ]
        },
        {
            "mesh" : 4,
            "name" : "3460.dat.001",
            "rotation" : [
                -0.6935200095176697,
                -0.13794969022274017,
                -0.13794972002506256,
                0.6935198307037354
            ],
            "translation" : [
                22.82781410217285,
                3.2000010013580322,
                -118.76319122314453
            ]
        },
        {
            "children" : [
                1,
                2,
                3,
                4,
                5
            ],
            "name" : "Track Curved"
        },
        {
            "mesh" : 5,
            "name" : "00001_3241a.dat",
            "rotation" : [
                -0.49999985098838806,
                0.5000002384185791,
                0.5000003576278687,
                0.4999997615814209
            ],
            "translation" : [
                4.761507034301758,
                3.1199991703033447,
                1.6697301864624023
            ]
        },
        {
            "children" : [
                7
            ],
            "name" : "00000_Rail.ldr",
            "translation" : [
                3.238492965698242,
                0.08000075072050095,
                -1.6697301864624023
            ]
        }
    ],
    "materials" : [
        {
            "doubleSided" : true,
            "name" : "Lego Standard",
            "pbrMetallicRoughness" : {
                "baseColorTexture" : {
                    "index" : 0
                },
                "metallicRoughnessTexture" : {
                    "index" : 1
                }
            }
        }
    ],
    "meshes" : [
        {
            "name" : "Mesh_3034.dat_7",
            "primitives" : [
                {
                    "attributes" : {
                        "POSITION" : 0,
                        "NORMAL" : 1,
                        "TEXCOORD_0" : 2
                    },
                    "indices" : 3,
                    "material" : 0
                }
            ]
        },
        {
            "name" : "Mesh_3229b.dat_7",
            "primitives" : [
                {
                    "attributes" : {
                        "POSITION" : 4,
                        "NORMAL" : 5,
                        "TEXCOORD_0" : 6
                    },
                    "indices" : 7,
                    "material" : 0
                }
            ]
        },
        {
            "name" : "Mesh_3230b.dat_7",
            "primitives" : [
                {
                    "attributes" : {
                        "POSITION" : 8,
                        "NORMAL" : 9,
                        "TEXCOORD_0" : 10
                    },
                    "indices" : 11,
                    "material" : 0
                }
            ]
        },
        {
            "name" : "Mesh_3460.dat_7",
            "primitives" : [
                {
                    "attributes" : {
                        "POSITION" : 12,
                        "NORMAL" : 13,
                        "TEXCOORD_0" : 14
                    },
                    "indices" : 15,
                    "material" : 0
                }
            ]
        },
        {
            "name" : "Mesh_3460.dat_7",
            "primitives" : [
                {
                    "attributes" : {
                        "POSITION" : 16,
                        "NORMAL" : 17,
                        "TEXCOORD_0" : 18
                    },
                    "indices" : 15,
                    "material" : 0
                }
            ]
        },
        {
            "name" : "Mesh_3241a.dat_7.002",
            "primitives" : [
                {
                    "attributes" : {
                        "POSITION" : 19,
                        "NORMAL" : 20,
                        "TEXCOORD_0" : 21
                    },
                    "indices" : 22,
                    "material" : 0
                }
            ]
        }
    ],
    "textures" : [
        {
            "sampler" : 0,
            "source" : 0
        },
        {
            "sampler" : 0,
            "source" : 1
        }
    ],
    "images" : [
        {
            "bufferView" : 4,
            "mimeType" : "image/png",
            "name" : "lego-c"
        },
        {
            "bufferView" : 5,
            "mimeType" : "image/png",
            "name" : "lego-m-lego-r.png"
        }
    ],
    "accessors" : [
        {
            "bufferView" : 0,
            "componentType" : 5126,
            "count" : 696,
            "max" : [
                32,
                8,
                1.600000023841858
            ],
            "min" : [
                -32,
                -8,
                -3.200000047683716
            ],
            "type" : "VEC3"
        },
        {
            "bufferView" : 1,
            "componentType" : 5126,
            "count" : 696,
            "type" : "VEC3"
        },
        {
            "bufferView" : 2,
            "componentType" : 5126,
            "count" : 696,
            "type" : "VEC2"
        },
        {
            "bufferView" : 3,
            "componentType" : 5123,
            "count" : 1428,
            "type" : "SCALAR"
        },
        {
            "bufferView" : 6,
            "componentType" : 5126,
            "count" : 4132,
            "max" : [
                67.11199951171875,
                3.996000051498413,
                0
            ],
            "min" : [
                -67.11199951171875,
                -10.456000328063965,
                -6.400000095367432
            ],
            "type" : "VEC3"
        },
        {
            "bufferView" : 7,
            "componentType" : 5126,
            "count" : 4132,
            "type" : "VEC3"
        },
        {
            "bufferView" : 8,
            "componentType" : 5126,
            "count" : 4132,
            "type" : "VEC2"
        },
        {
            "bufferView" : 9,
            "componentType" : 5123,
            "count" : 5808,
            "type" : "SCALAR"
        },
        {
            "bufferView" : 10,
            "componentType" : 5126,
            "count" : 1132,
            "max" : [
                59.30735778808594,
                4,
                0
            ],
            "min" : [
                -59.30735778808594,
                -9.6876220703125,
                -6.400000095367432
            ],
            "type" : "VEC3"
        },
        {
            "bufferView" : 11,
            "componentType" : 5126,
            "count" : 1132,
            "type" : "VEC3"
        },
        {
            "bufferView" : 12,
            "componentType" : 5126,
            "count" : 1132,
            "type" : "VEC2"
        },
        {
            "bufferView" : 13,
            "componentType" : 5123,
            "count" : 1662,
            "type" : "SCALAR"
        },
        {
            "bufferView" : 14,
            "componentType" : 5126,
            "count" : 312,
            "max" : [
                32,
                4,
                1.600000023841858
            ],
            "min" : [
                -32,
                -4,
                -3.200000047683716
            ],
            "type" : "VEC3"
        },
        {
            "bufferView" : 15,
            "componentType" : 5126,
            "count" : 312,
            "type" : "VEC3"
        },
        {
            "bufferView" : 16,
            "componentType" : 5126,
            "count" : 312,
            "type" : "VEC2"
        },
        {
            "bufferView" : 17,
            "componentType" : 5123,
            "count" : 612,
            "type" : "SCALAR"
        },
        {
            "bufferView" : 18,
            "componentType" : 5126,
            "count" : 312,
            "max" : [
                32,
                4,
                1.600000023841858
            ],
            "min" : [
                -32,
                -4,
                -3.200000047683716
            ],
            "type" : "VEC3"
        },
        {
            "bufferView" : 19,
            "componentType" : 5126,
            "count" : 312,
            "type" : "VEC3"
        },
        {
            "bufferView" : 20,
            "componentType" : 5126,
            "count" : 312,
            "type" : "VEC2"
        },
        {
            "bufferView" : 21,
            "componentType" : 5126,
            "count" : 5455,
            "max" : [
                125.520263671875,
                16.003650665283203,
                6.399999618530273
            ],
            "min" : [
                0,
                -23.749439239501953,
                -4.76837158203125e-07
            ],
            "type" : "VEC3"
        },
        {
            "bufferView" : 22,
            "componentType" : 5126,
            "count" : 5455,
            "type" : "VEC3"
        },
        {
            "bufferView" : 23,
            "componentType" : 5126,
            "count" : 5455,
            "type" : "VEC2"
        },
        {
            "bufferView" : 24,
            "componentType" : 5123,
            "count" : 8178,
            "type" : "SCALAR"
        }
    ],
    "bufferViews" : [
        {
            "buffer" : 0,
            "byteLength" : 8352,
            "byteOffset" : 0
        },
        {
            "buffer" : 0,
            "byteLength" : 8352,
            "byteOffset" : 8352
        },
        {
            "buffer" : 0,
            "byteLength" : 5568,
            "byteOffset" : 16704
        },
        {
            "buffer" : 0,
            "byteLength" : 2856,
            "byteOffset" : 22272
        },
        {
            "buffer" : 0,
            "byteLength" : 255,
            "byteOffset" : 25128
        },
        {
            "buffer" : 0,
            "byteLength" : 121,
            "byteOffset" : 25384
        },
        {
            "buffer" : 0,
            "byteLength" : 49584,
            "byteOffset" : 25508
        },
        {
            "buffer" : 0,
            "byteLength" : 49584,
            "byteOffset" : 75092
        },
        {
            "buffer" : 0,
            "byteLength" : 33056,
            "byteOffset" : 124676
        },
        {
            "buffer" : 0,
            "byteLength" : 11616,
            "byteOffset" : 157732
        },
        {
            "buffer" : 0,
            "byteLength" : 13584,
            "byteOffset" : 169348
        },
        {
            "buffer" : 0,
            "byteLength" : 13584,
            "byteOffset" : 182932
        },
        {
            "buffer" : 0,
            "byteLength" : 9056,
            "byteOffset" : 196516
        },
        {
            "buffer" : 0,
            "byteLength" : 3324,
            "byteOffset" : 205572
        },
        {
            "buffer" : 0,
            "byteLength" : 3744,
            "byteOffset" : 208896
        },
        {
            "buffer" : 0,
            "byteLength" : 3744,
            "byteOffset" : 212640
        },
        {
            "buffer" : 0,
            "byteLength" : 2496,
            "byteOffset" : 216384
        },
        {
            "buffer" : 0,
            "byteLength" : 1224,
            "byteOffset" : 218880
        },
        {
            "buffer" : 0,
            "byteLength" : 3744,
            "byteOffset" : 220104
        },
        {
            "buffer" : 0,
            "byteLength" : 3744,
            "byteOffset" : 223848
        },
        {
            "buffer" : 0,
            "byteLength" : 2496,
            "byteOffset" : 227592
        },
        {
            "buffer" : 0,
            "byteLength" : 65460,
            "byteOffset" : 230088
        },
        {
            "buffer" : 0,
            "byteLength" : 65460,
            "byteOffset" : 295548
        },
        {
            "buffer" : 0,
            "byteLength" : 43640,
            "byteOffset" : 361008
        },
        {
            "buffer" : 0,
            "byteLength" : 16356,
            "byteOffset" : 404648
        }
    ],
    "samplers" : [
        {
            "magFilter" : 9728,
            "minFilter" : 9984
        }
    ],
    "buffers" : [
        {
            "byteLength" : 421004,
            "uri" : "data:application/octet-stream;base64,"
        }
    ]
}
