{
    "asset" : {
        "generator" : "Khronos glTF Blender I/O v1.8.19",
        "version" : "2.0"
    },
    "scene" : 0,
    "scenes" : [
        {
            "name" : "Scene",
            "nodes" : [
                0,
                8
            ]
        }
    ],
    "nodes" : [
        {
            "name" : "_Scale_1_38_mm",
            "translation" : [
                28,
                2,
                -64
            ]
        },
        {
            "mesh" : 0,
            "name" : "3228b.dat",
            "rotation" : [
                -0.5,
                0.5,
                0.5,
                0.4999999701976776
            ],
            "translation" : [
                -19.999988555908203,
                9.59999942779541,
                -32
            ]
        },
        {
            "mesh" : 0,
            "name" : "3228b.dat.001",
            "rotation" : [
                -0.5,
                0.5,
                0.5,
                0.4999999701976776
            ],
            "translation" : [
                20.000024795532227,
                9.59999942779541,
                -32
            ]
        },
        {
            "mesh" : 1,
            "name" : "3240b.dat",
            "rotation" : [
                -0.5,
                0.5,
                0.5,
                0.4999999701976776
            ],
            "translation" : [
                7.999999979801942e-06,
                9.59999942779541,
                -32.0000114440918
            ]
        },
        {
            "mesh" : 2,
            "name" : "3240b.dat.001",
            "rotation" : [
                -0.5,
                0.5,
                0.5,
                0.4999999701976776
            ],
            "translation" : [
                7.999999979801942e-06,
                9.59999942779541,
                -32.0000114440918
            ]
        },
        {
            "mesh" : 3,
            "name" : "3460.dat",
            "rotation" : [
                -0.7071068286895752,
                0,
                0,
                0.7071067094802856
            ],
            "translation" : [
                0,
                3.2000012397766113,
                28
            ]
        },
        {
            "mesh" : 3,
            "name" : "3460.dat.001",
            "rotation" : [
                -0.7071068286895752,
                0,
                0,
                0.7071067094802856
            ],
            "translation" : [
                1.9999999494757503e-05,
                3.199995994567871,
                -92
            ]
        },
        {
            "mesh" : 4,
            "name" : "767.dat",
            "rotation" : [
                -0.7071068286895752,
                0,
                0,
                0.7071067094802856
            ],
            "translation" : [
                0,
                3.199998617172241,
                -32.0000114440918
            ]
        },
        {
            "children" : [
                1,
                2,
                3,
                4,
                5,
                6,
                7
            ],
            "name" : "Track Straight.ldr",
            "translation" : [
                -1.1727213859558105e-05,
                0,
                -32
            ]
        }
    ],
    "materials" : [
        {
            "doubleSided" : true,
            "name" : "Lego Standard",
            "pbrMetallicRoughness" : {
                "baseColorTexture" : {
                    "index" : 0
                },
                "metallicRoughnessTexture" : {
                    "index" : 1
                }
            }
        }
    ],
    "meshes" : [
        {
            "name" : "Mesh_3228b.dat_7",
            "primitives" : [
                {
                    "attributes" : {
                        "POSITION" : 0,
                        "NORMAL" : 1,
                        "TEXCOORD_0" : 2
                    },
                    "indices" : 3,
                    "material" : 0
                }
            ]
        },
        {
            "name" : "Mesh_3240b.dat_7",
            "primitives" : [
                {
                    "attributes" : {
                        "POSITION" : 4,
                        "NORMAL" : 5,
                        "TEXCOORD_0" : 6
                    },
                    "indices" : 7,
                    "material" : 0
                }
            ]
        },
        {
            "name" : "Mesh_3240b.dat_7.001",
            "primitives" : [
                {
                    "attributes" : {
                        "POSITION" : 8,
                        "NORMAL" : 9,
                        "TEXCOORD_0" : 10
                    },
                    "indices" : 11,
                    "material" : 0
                }
            ]
        },
        {
            "name" : "Mesh_3460.dat_8",
            "primitives" : [
                {
                    "attributes" : {
                        "POSITION" : 12,
                        "NORMAL" : 13,
                        "TEXCOORD_0" : 14
                    },
                    "indices" : 15,
                    "material" : 0
                }
            ]
        },
        {
            "name" : "Mesh_767.dat_8",
            "primitives" : [
                {
                    "attributes" : {
                        "POSITION" : 16,
                        "NORMAL" : 17,
                        "TEXCOORD_0" : 18
                    },
                    "indices" : 19,
                    "material" : 0
                }
            ]
        }
    ],
    "textures" : [
        {
            "sampler" : 0,
            "source" : 0
        },
        {
            "sampler" : 0,
            "source" : 1
        }
    ],
    "images" : [
        {
            "bufferView" : 4,
            "mimeType" : "image/png",
            "name" : "lego-c"
        },
        {
            "bufferView" : 5,
            "mimeType" : "image/png",
            "name" : "lego-m-lego-r.png"
        }
    ],
    "accessors" : [
        {
            "bufferView" : 0,
            "componentType" : 5126,
            "count" : 1957,
            "max" : [
                64,
                4,
                0
            ],
            "min" : [
                -64,
                -4,
                -6.400000095367432
            ],
            "type" : "VEC3"
        },
        {
            "bufferView" : 1,
            "componentType" : 5126,
            "count" : 1957,
            "type" : "VEC3"
        },
        {
            "bufferView" : 2,
            "componentType" : 5126,
            "count" : 1957,
            "type" : "VEC2"
        },
        {
            "bufferView" : 3,
            "componentType" : 5123,
            "count" : 2820,
            "type" : "SCALAR"
        },
        {
            "bufferView" : 6,
            "componentType" : 5126,
            "count" : 48,
            "max" : [
                64,
                6.400000095367432,
                0
            ],
            "min" : [
                -64.00001525878906,
                -6.400000095367432,
                -3.200000047683716
            ],
            "type" : "VEC3"
        },
        {
            "bufferView" : 7,
            "componentType" : 5126,
            "count" : 48,
            "type" : "VEC3"
        },
        {
            "bufferView" : 8,
            "componentType" : 5126,
            "count" : 48,
            "type" : "VEC2"
        },
        {
            "bufferView" : 9,
            "componentType" : 5123,
            "count" : 72,
            "type" : "SCALAR"
        },
        {
            "bufferView" : 10,
            "componentType" : 5126,
            "count" : 630,
            "max" : [
                64,
                8,
                -1.5999999046325684
            ],
            "min" : [
                -64,
                -8,
                -6.400000095367432
            ],
            "type" : "VEC3"
        },
        {
            "bufferView" : 11,
            "componentType" : 5126,
            "count" : 630,
            "type" : "VEC3"
        },
        {
            "bufferView" : 12,
            "componentType" : 5126,
            "count" : 630,
            "type" : "VEC2"
        },
        {
            "bufferView" : 13,
            "componentType" : 5123,
            "count" : 1092,
            "type" : "SCALAR"
        },
        {
            "bufferView" : 14,
            "componentType" : 5126,
            "count" : 434,
            "max" : [
                32,
                4,
                1.600000023841858
            ],
            "min" : [
                -32,
                -4,
                -3.200000047683716
            ],
            "type" : "VEC3"
        },
        {
            "bufferView" : 15,
            "componentType" : 5126,
            "count" : 434,
            "type" : "VEC3"
        },
        {
            "bufferView" : 16,
            "componentType" : 5126,
            "count" : 434,
            "type" : "VEC2"
        },
        {
            "bufferView" : 17,
            "componentType" : 5123,
            "count" : 660,
            "type" : "SCALAR"
        },
        {
            "bufferView" : 18,
            "componentType" : 5126,
            "count" : 1302,
            "max" : [
                32,
                8,
                3.6000001430511475
            ],
            "min" : [
                -32,
                -8,
                -3.200000047683716
            ],
            "type" : "VEC3"
        },
        {
            "bufferView" : 19,
            "componentType" : 5126,
            "count" : 1302,
            "type" : "VEC3"
        },
        {
            "bufferView" : 20,
            "componentType" : 5126,
            "count" : 1302,
            "type" : "VEC2"
        },
        {
            "bufferView" : 21,
            "componentType" : 5123,
            "count" : 2088,
            "type" : "SCALAR"
        }
    ],
    "bufferViews" : [
        {
            "buffer" : 0,
            "byteLength" : 23484,
            "byteOffset" : 0
        },
        {
            "buffer" : 0,
            "byteLength" : 23484,
            "byteOffset" : 23484
        },
        {
            "buffer" : 0,
            "byteLength" : 15656,
            "byteOffset" : 46968
        },
        {
            "buffer" : 0,
            "byteLength" : 5640,
            "byteOffset" : 62624
        },
        {
            "buffer" : 0,
            "byteLength" : 255,
            "byteOffset" : 68264
        },
        {
            "buffer" : 0,
            "byteLength" : 121,
            "byteOffset" : 68520
        },
        {
            "buffer" : 0,
            "byteLength" : 576,
            "byteOffset" : 68644
        },
        {
            "buffer" : 0,
            "byteLength" : 576,
            "byteOffset" : 69220
        },
        {
            "buffer" : 0,
            "byteLength" : 384,
            "byteOffset" : 69796
        },
        {
            "buffer" : 0,
            "byteLength" : 144,
            "byteOffset" : 70180
        },
        {
            "buffer" : 0,
            "byteLength" : 7560,
            "byteOffset" : 70324
        },
        {
            "buffer" : 0,
            "byteLength" : 7560,
            "byteOffset" : 77884
        },
        {
            "buffer" : 0,
            "byteLength" : 5040,
            "byteOffset" : 85444
        },
        {
            "buffer" : 0,
            "byteLength" : 2184,
            "byteOffset" : 90484
        },
        {
            "buffer" : 0,
            "byteLength" : 5208,
            "byteOffset" : 92668
        },
        {
            "buffer" : 0,
            "byteLength" : 5208,
            "byteOffset" : 97876
        },
        {
            "buffer" : 0,
            "byteLength" : 3472,
            "byteOffset" : 103084
        },
        {
            "buffer" : 0,
            "byteLength" : 1320,
            "byteOffset" : 106556
        },
        {
            "buffer" : 0,
            "byteLength" : 15624,
            "byteOffset" : 107876
        },
        {
            "buffer" : 0,
            "byteLength" : 15624,
            "byteOffset" : 123500
        },
        {
            "buffer" : 0,
            "byteLength" : 10416,
            "byteOffset" : 139124
        },
        {
            "buffer" : 0,
            "byteLength" : 4176,
            "byteOffset" : 149540
        }
    ],
    "samplers" : [
        {
            "magFilter" : 9728,
            "minFilter" : 9984
        }
    ],
    "buffers" : [
        {
            "byteLength" : 153716,
            "uri" : "data:application/octet-stream;base64,"
        }
    ]
}
