{
    "asset" : {
        "generator" : "Khronos glTF Blender I/O v1.7.33",
        "version" : "2.0"
    },
    "extensionsUsed" : [
        "KHR_materials_transmission"
    ],
    "scene" : 0,
    "scenes" : [
        {
            "name" : "Scene",
            "nodes" : [
                9,
                10,
                11
            ]
        }
    ],
    "nodes" : [
        {
            "mesh" : 0,
            "name" : "3020.dat",
            "rotation" : [
                -0.7071068286895752,
                0,
                0,
                0.7071067094802856
            ],
            "translation" : [
                16,
                6.399998664855957,
                -8.000000953674316
            ]
        },
        {
            "mesh" : 1,
            "name" : "3021.dat",
            "rotation" : [
                -0.7071068286895752,
                0,
                0,
                0.7071067094802856
            ],
            "translation" : [
                12,
                3.199998617172241,
                -8
            ]
        },
        {
            "mesh" : 2,
            "name" : "4168.dat",
            "rotation" : [
                0.70710688829422,
                -0.7071066498756409,
                0,
                3.0908619663705394e-08
            ],
            "translation" : [
                12,
                75.19999694824219,
                -9.640022277832031
            ]
        },
        {
            "mesh" : 3,
            "name" : "4169.dat",
            "rotation" : [
                -0.7071068286895752,
                0,
                0,
                0.7071067094802856
            ],
            "translation" : [
                12,
                9.599997520446777,
                -8.000007629394531
            ]
        },
        {
            "mesh" : 4,
            "name" : "Green_Off",
            "translation" : [
                2.5113317860814277e-06,
                0,
                0
            ]
        },
        {
            "mesh" : 5,
            "name" : "Green_On",
            "scale" : [
                0.10000002384185791,
                0.10000002384185791,
                0.10000002384185791
            ],
            "translation" : [
                2.5113317860814277e-06,
                0,
                0
            ]
        },
        {
            "mesh" : 6,
            "name" : "Red_Off",
            "scale" : [
                0.10000000149011612,
                0.10000000149011612,
                0.10000000149011612
            ],
            "translation" : [
                2.5113317860814277e-06,
                0,
                0
            ]
        },
        {
            "mesh" : 7,
            "name" : "Red_On",
            "translation" : [
                2.5113317860814277e-06,
                0,
                0
            ]
        },
        {
            "children" : [
                4,
                5,
                6,
                7
            ],
            "mesh" : 8,
            "name" : "70022.dat.001",
            "rotation" : [
                0.70710688829422,
                0.7071066498756409,
                0,
                5.338508302088485e-08
            ],
            "translation" : [
                8,
                119.19999694824219,
                -6.639987945556641
            ]
        },
        {
            "children" : [
                0,
                1,
                2,
                3,
                8
            ],
            "name" : "Signal.ldr"
        },
        {
            "name" : "_CP_Track_Dynamic",
            "translation" : [
                56,
                0,
                -8
            ]
        },
        {
            "name" : "_Scale_1_38_mm"
        }
    ],
    "animations" : [
        {
            "channels" : [
                {
                    "sampler" : 0,
                    "target" : {
                        "node" : 7,
                        "path" : "scale"
                    }
                }
            ],
            "name" : "70022.dat.002Action",
            "samplers" : [
                {
                    "input" : 34,
                    "interpolation" : "LINEAR",
                    "output" : 35
                }
            ]
        },
        {
            "channels" : [
                {
                    "sampler" : 0,
                    "target" : {
                        "node" : 4,
                        "path" : "scale"
                    }
                }
            ],
            "name" : "70022.dat.003Action.001",
            "samplers" : [
                {
                    "input" : 34,
                    "interpolation" : "LINEAR",
                    "output" : 36
                }
            ]
        },
        {
            "channels" : [
                {
                    "sampler" : 0,
                    "target" : {
                        "node" : 6,
                        "path" : "scale"
                    }
                }
            ],
            "name" : "70022.dat.002Action.001",
            "samplers" : [
                {
                    "input" : 34,
                    "interpolation" : "LINEAR",
                    "output" : 37
                }
            ]
        },
        {
            "channels" : [
                {
                    "sampler" : 0,
                    "target" : {
                        "node" : 5,
                        "path" : "scale"
                    }
                }
            ],
            "name" : "70022.dat.003Action.002",
            "samplers" : [
                {
                    "input" : 34,
                    "interpolation" : "LINEAR",
                    "output" : 38
                }
            ]
        }
    ],
    "materials" : [
        {
            "doubleSided" : true,
            "emissiveFactor" : [
                1,
                1,
                1
            ],
            "emissiveTexture" : {
                "index" : 0
            },
            "extensions" : {
                "KHR_materials_transmission" : {
                    "transmissionFactor" : 1,
                    "transmissionTexture" : {
                        "index" : 1
                    }
                }
            },
            "name" : "Lego Standard",
            "pbrMetallicRoughness" : {
                "baseColorTexture" : {
                    "index" : 2
                },
                "metallicRoughnessTexture" : {
                    "index" : 3
                }
            }
        }
    ],
    "meshes" : [
        {
            "name" : "Mesh_3020.dat_7",
            "primitives" : [
                {
                    "attributes" : {
                        "POSITION" : 0,
                        "NORMAL" : 1,
                        "TEXCOORD_0" : 2
                    },
                    "indices" : 3,
                    "material" : 0
                }
            ]
        },
        {
            "name" : "Mesh_3021.dat_7",
            "primitives" : [
                {
                    "attributes" : {
                        "POSITION" : 4,
                        "NORMAL" : 5,
                        "TEXCOORD_0" : 6
                    },
                    "indices" : 7,
                    "material" : 0
                }
            ]
        },
        {
            "name" : "Mesh_4168.dat_7",
            "primitives" : [
                {
                    "attributes" : {
                        "POSITION" : 8,
                        "NORMAL" : 9,
                        "TEXCOORD_0" : 10
                    },
                    "indices" : 11,
                    "material" : 0
                }
            ]
        },
        {
            "name" : "Mesh_4169.dat_7",
            "primitives" : [
                {
                    "attributes" : {
                        "POSITION" : 12,
                        "NORMAL" : 13,
                        "TEXCOORD_0" : 14
                    },
                    "indices" : 15,
                    "material" : 0
                }
            ]
        },
        {
            "name" : "Mesh_70022.dat_7.006",
            "primitives" : [
                {
                    "attributes" : {
                        "POSITION" : 16,
                        "NORMAL" : 17,
                        "TEXCOORD_0" : 18
                    },
                    "indices" : 19,
                    "material" : 0
                }
            ]
        },
        {
            "name" : "Mesh_70022.dat_7.004",
            "primitives" : [
                {
                    "attributes" : {
                        "POSITION" : 20,
                        "NORMAL" : 21,
                        "TEXCOORD_0" : 22
                    },
                    "indices" : 19,
                    "material" : 0
                }
            ]
        },
        {
            "name" : "Mesh_70022.dat_7.003",
            "primitives" : [
                {
                    "attributes" : {
                        "POSITION" : 23,
                        "NORMAL" : 24,
                        "TEXCOORD_0" : 25
                    },
                    "indices" : 26,
                    "material" : 0
                }
            ]
        },
        {
            "name" : "Mesh_70022.dat_7.002",
            "primitives" : [
                {
                    "attributes" : {
                        "POSITION" : 27,
                        "NORMAL" : 28,
                        "TEXCOORD_0" : 29
                    },
                    "indices" : 26,
                    "material" : 0
                }
            ]
        },
        {
            "name" : "Mesh_70022.dat_7.001",
            "primitives" : [
                {
                    "attributes" : {
                        "POSITION" : 30,
                        "NORMAL" : 31,
                        "TEXCOORD_0" : 32
                    },
                    "indices" : 33,
                    "material" : 0
                }
            ]
        }
    ],
    "textures" : [
        {
            "sampler" : 0,
            "source" : 0
        },
        {
            "sampler" : 0,
            "source" : 1
        },
        {
            "sampler" : 0,
            "source" : 2
        },
        {
            "sampler" : 0,
            "source" : 3
        }
    ],
    "images" : [
        {
            "bufferView" : 4,
            "mimeType" : "image/png",
            "name" : "lego-e"
        },
        {
            "bufferView" : 5,
            "mimeType" : "image/png",
            "name" : "lego-t"
        },
        {
            "bufferView" : 6,
            "mimeType" : "image/png",
            "name" : "lego-c"
        },
        {
            "bufferView" : 7,
            "mimeType" : "image/png",
            "name" : "lego-m.png-lego-r.png"
        }
    ],
    "accessors" : [
        {
            "bufferView" : 0,
            "componentType" : 5126,
            "count" : 680,
            "max" : [
                16,
                8,
                1.600000023841858
            ],
            "min" : [
                -16,
                -8,
                -3.200000047683716
            ],
            "type" : "VEC3"
        },
        {
            "bufferView" : 1,
            "componentType" : 5126,
            "count" : 680,
            "type" : "VEC3"
        },
        {
            "bufferView" : 2,
            "componentType" : 5126,
            "count" : 680,
            "type" : "VEC2"
        },
        {
            "bufferView" : 3,
            "componentType" : 5123,
            "count" : 1092,
            "type" : "SCALAR"
        },
        {
            "bufferView" : 8,
            "componentType" : 5126,
            "count" : 494,
            "max" : [
                12,
                8,
                1.600000023841858
            ],
            "min" : [
                -12,
                -8,
                -3.200000047683716
            ],
            "type" : "VEC3"
        },
        {
            "bufferView" : 9,
            "componentType" : 5126,
            "count" : 494,
            "type" : "VEC3"
        },
        {
            "bufferView" : 10,
            "componentType" : 5126,
            "count" : 494,
            "type" : "VEC2"
        },
        {
            "bufferView" : 11,
            "componentType" : 5123,
            "count" : 804,
            "type" : "SCALAR"
        },
        {
            "bufferView" : 12,
            "componentType" : 5126,
            "count" : 1008,
            "max" : [
                64,
                4,
                0
            ],
            "min" : [
                -64,
                -4,
                -3.200000047683716
            ],
            "type" : "VEC3"
        },
        {
            "bufferView" : 13,
            "componentType" : 5126,
            "count" : 1008,
            "type" : "VEC3"
        },
        {
            "bufferView" : 14,
            "componentType" : 5126,
            "count" : 1008,
            "type" : "VEC2"
        },
        {
            "bufferView" : 15,
            "componentType" : 5123,
            "count" : 1536,
            "type" : "SCALAR"
        },
        {
            "bufferView" : 16,
            "componentType" : 5126,
            "count" : 524,
            "max" : [
                12,
                8,
                25.600000381469727
            ],
            "min" : [
                -12,
                -8,
                -3.200000047683716
            ],
            "type" : "VEC3"
        },
        {
            "bufferView" : 17,
            "componentType" : 5126,
            "count" : 524,
            "type" : "VEC3"
        },
        {
            "bufferView" : 18,
            "componentType" : 5126,
            "count" : 524,
            "type" : "VEC2"
        },
        {
            "bufferView" : 19,
            "componentType" : 5123,
            "count" : 858,
            "type" : "SCALAR"
        },
        {
            "bufferView" : 20,
            "componentType" : 5126,
            "count" : 25,
            "max" : [
                7.703215599060059,
                2.586416006088257,
                -9.556400299072266
            ],
            "min" : [
                2.530383825302124,
                -2.586416006088257,
                -14.942816734313965
            ],
            "type" : "VEC3"
        },
        {
            "bufferView" : 21,
            "componentType" : 5126,
            "count" : 25,
            "type" : "VEC3"
        },
        {
            "bufferView" : 22,
            "componentType" : 5126,
            "count" : 25,
            "type" : "VEC2"
        },
        {
            "bufferView" : 23,
            "componentType" : 5123,
            "count" : 96,
            "type" : "SCALAR"
        },
        {
            "bufferView" : 24,
            "componentType" : 5126,
            "count" : 25,
            "max" : [
                7.703215599060059,
                2.586416006088257,
                -9.556400299072266
            ],
            "min" : [
                2.530383825302124,
                -2.586416006088257,
                -14.942816734313965
            ],
            "type" : "VEC3"
        },
        {
            "bufferView" : 25,
            "componentType" : 5126,
            "count" : 25,
            "type" : "VEC3"
        },
        {
            "bufferView" : 26,
            "componentType" : 5126,
            "count" : 25,
            "type" : "VEC2"
        },
        {
            "bufferView" : 27,
            "componentType" : 5126,
            "count" : 25,
            "max" : [
                -2.530383825302124,
                2.586416006088257,
                -9.556400299072266
            ],
            "min" : [
                -7.703215599060059,
                -2.586416006088257,
                -14.942816734313965
            ],
            "type" : "VEC3"
        },
        {
            "bufferView" : 28,
            "componentType" : 5126,
            "count" : 25,
            "type" : "VEC3"
        },
        {
            "bufferView" : 29,
            "componentType" : 5126,
            "count" : 25,
            "type" : "VEC2"
        },
        {
            "bufferView" : 30,
            "componentType" : 5123,
            "count" : 96,
            "type" : "SCALAR"
        },
        {
            "bufferView" : 31,
            "componentType" : 5126,
            "count" : 25,
            "max" : [
                -2.530383825302124,
                2.586416006088257,
                -9.556400299072266
            ],
            "min" : [
                -7.703215599060059,
                -2.586416006088257,
                -14.942816734313965
            ],
            "type" : "VEC3"
        },
        {
            "bufferView" : 32,
            "componentType" : 5126,
            "count" : 25,
            "type" : "VEC3"
        },
        {
            "bufferView" : 33,
            "componentType" : 5126,
            "count" : 25,
            "type" : "VEC2"
        },
        {
            "bufferView" : 34,
            "componentType" : 5126,
            "count" : 586,
            "max" : [
                12,
                8,
                1.600000023841858
            ],
            "min" : [
                -12,
                -8,
                -15.013319969177246
            ],
            "type" : "VEC3"
        },
        {
            "bufferView" : 35,
            "componentType" : 5126,
            "count" : 586,
            "type" : "VEC3"
        },
        {
            "bufferView" : 36,
            "componentType" : 5126,
            "count" : 586,
            "type" : "VEC2"
        },
        {
            "bufferView" : 37,
            "componentType" : 5123,
            "count" : 948,
            "type" : "SCALAR"
        },
        {
            "bufferView" : 38,
            "componentType" : 5126,
            "count" : 2,
            "max" : [
                0.041666666666666664
            ],
            "min" : [
                0
            ],
            "type" : "SCALAR"
        },
        {
            "bufferView" : 39,
            "componentType" : 5126,
            "count" : 2,
            "type" : "VEC3"
        },
        {
            "bufferView" : 40,
            "componentType" : 5126,
            "count" : 2,
            "type" : "VEC3"
        },
        {
            "bufferView" : 41,
            "componentType" : 5126,
            "count" : 2,
            "type" : "VEC3"
        },
        {
            "bufferView" : 42,
            "componentType" : 5126,
            "count" : 2,
            "type" : "VEC3"
        }
    ],
    "bufferViews" : [
        {
            "buffer" : 0,
            "byteLength" : 8160,
            "byteOffset" : 0
        },
        {
            "buffer" : 0,
            "byteLength" : 8160,
            "byteOffset" : 8160
        },
        {
            "buffer" : 0,
            "byteLength" : 5440,
            "byteOffset" : 16320
        },
        {
            "buffer" : 0,
            "byteLength" : 2184,
            "byteOffset" : 21760
        },
        {
            "buffer" : 0,
            "byteLength" : 611,
            "byteOffset" : 23944
        },
        {
            "buffer" : 0,
            "byteLength" : 601,
            "byteOffset" : 24556
        },
        {
            "buffer" : 0,
            "byteLength" : 672,
            "byteOffset" : 25160
        },
        {
            "buffer" : 0,
            "byteLength" : 121,
            "byteOffset" : 25832
        },
        {
            "buffer" : 0,
            "byteLength" : 5928,
            "byteOffset" : 25956
        },
        {
            "buffer" : 0,
            "byteLength" : 5928,
            "byteOffset" : 31884
        },
        {
            "buffer" : 0,
            "byteLength" : 3952,
            "byteOffset" : 37812
        },
        {
            "buffer" : 0,
            "byteLength" : 1608,
            "byteOffset" : 41764
        },
        {
            "buffer" : 0,
            "byteLength" : 12096,
            "byteOffset" : 43372
        },
        {
            "buffer" : 0,
            "byteLength" : 12096,
            "byteOffset" : 55468
        },
        {
            "buffer" : 0,
            "byteLength" : 8064,
            "byteOffset" : 67564
        },
        {
            "buffer" : 0,
            "byteLength" : 3072,
            "byteOffset" : 75628
        },
        {
            "buffer" : 0,
            "byteLength" : 6288,
            "byteOffset" : 78700
        },
        {
            "buffer" : 0,
            "byteLength" : 6288,
            "byteOffset" : 84988
        },
        {
            "buffer" : 0,
            "byteLength" : 4192,
            "byteOffset" : 91276
        },
        {
            "buffer" : 0,
            "byteLength" : 1716,
            "byteOffset" : 95468
        },
        {
            "buffer" : 0,
            "byteLength" : 300,
            "byteOffset" : 97184
        },
        {
            "buffer" : 0,
            "byteLength" : 300,
            "byteOffset" : 97484
        },
        {
            "buffer" : 0,
            "byteLength" : 200,
            "byteOffset" : 97784
        },
        {
            "buffer" : 0,
            "byteLength" : 192,
            "byteOffset" : 97984
        },
        {
            "buffer" : 0,
            "byteLength" : 300,
            "byteOffset" : 98176
        },
        {
            "buffer" : 0,
            "byteLength" : 300,
            "byteOffset" : 98476
        },
        {
            "buffer" : 0,
            "byteLength" : 200,
            "byteOffset" : 98776
        },
        {
            "buffer" : 0,
            "byteLength" : 300,
            "byteOffset" : 98976
        },
        {
            "buffer" : 0,
            "byteLength" : 300,
            "byteOffset" : 99276
        },
        {
            "buffer" : 0,
            "byteLength" : 200,
            "byteOffset" : 99576
        },
        {
            "buffer" : 0,
            "byteLength" : 192,
            "byteOffset" : 99776
        },
        {
            "buffer" : 0,
            "byteLength" : 300,
            "byteOffset" : 99968
        },
        {
            "buffer" : 0,
            "byteLength" : 300,
            "byteOffset" : 100268
        },
        {
            "buffer" : 0,
            "byteLength" : 200,
            "byteOffset" : 100568
        },
        {
            "buffer" : 0,
            "byteLength" : 7032,
            "byteOffset" : 100768
        },
        {
            "buffer" : 0,
            "byteLength" : 7032,
            "byteOffset" : 107800
        },
        {
            "buffer" : 0,
            "byteLength" : 4688,
            "byteOffset" : 114832
        },
        {
            "buffer" : 0,
            "byteLength" : 1896,
            "byteOffset" : 119520
        },
        {
            "buffer" : 0,
            "byteLength" : 8,
            "byteOffset" : 121416
        },
        {
            "buffer" : 0,
            "byteLength" : 24,
            "byteOffset" : 121424
        },
        {
            "buffer" : 0,
            "byteLength" : 24,
            "byteOffset" : 121448
        },
        {
            "buffer" : 0,
            "byteLength" : 24,
            "byteOffset" : 121472
        },
        {
            "buffer" : 0,
            "byteLength" : 24,
            "byteOffset" : 121496
        }
    ],
    "samplers" : [
        {
            "magFilter" : 9728,
            "minFilter" : 9984
        }
    ],
    "buffers" : [
        {
            "byteLength" : 121520,
            "uri" : "data:application/octet-stream;base64,"
        }
    ]
}
