{
    "asset" : {
        "generator" : "Khronos glTF Blender I/O v1.7.33",
        "version" : "2.0"
    },
    "scene" : 0,
    "scenes" : [
        {
            "name" : "Scene",
            "nodes" : [
                14
            ]
        }
    ],
    "nodes" : [
        {
            "mesh" : 0,
            "name" : "3460.dat",
            "rotation" : [
                -0.7071068286895752,
                0,
                0,
                0.7071067094802856
            ],
            "translation" : [
                24,
                3.200002670288086,
                60
            ]
        },
        {
            "mesh" : 0,
            "name" : "3460.dat.001",
            "rotation" : [
                -0.7071068286895752,
                0,
                0,
                0.7071067094802856
            ],
            "translation" : [
                24,
                3.1999919414520264,
                -188
            ]
        },
        {
            "mesh" : 0,
            "name" : "3460.dat.002",
            "rotation" : [
                -0.7071068286895752,
                0,
                0,
                0.7071067094802856
            ],
            "translation" : [
                -40,
                3.1999919414520264,
                -188
            ]
        },
        {
            "mesh" : 1,
            "name" : "3034.dat",
            "rotation" : [
                0,
                0,
                -0.7071067690849304,
                0.7071068286895752
            ],
            "translation" : [
                64,
                0,
                -6.400000095367432
            ]
        },
        {
            "mesh" : 2,
            "name" : "3245bp01.dat",
            "translation" : [
                -88,
                72,
                32
            ]
        },
        {
            "mesh" : 3,
            "name" : "3795.dat",
            "rotation" : [
                0,
                0,
                -0.6152316927909851,
                0.7883463501930237
            ],
            "translation" : [
                59.96560287475586,
                63.608802795410156,
                -6.400000095367432
            ]
        },
        {
            "mesh" : 4,
            "name" : "459b.dat"
        },
        {
            "children" : [
                6
            ],
            "name" : "70026.dat",
            "translation" : [
                -72,
                72,
                9.600000381469727
            ]
        },
        {
            "mesh" : 5,
            "name" : "864.dat"
        },
        {
            "mesh" : 6,
            "name" : "864.dat.001",
            "rotation" : [
                0,
                0,
                -0.06426972895860672,
                0.9979325532913208
            ],
            "translation" : [
                -73.22262573242188,
                -14.00623607635498,
                0
            ]
        },
        {
            "mesh" : 7,
            "name" : "u9033.dat",
            "rotation" : [
                0,
                0,
                -0.7071067690849304,
                0.7071068286895752
            ],
            "translation" : [
                0,
                0,
                -6.400000095367432
            ]
        },
        {
            "mesh" : 8,
            "name" : "u9035.dat",
            "translation" : [
                -72,
                72,
                -6.400000095367432
            ]
        },
        {
            "children" : [
                8,
                9,
                10,
                11
            ],
            "name" : "73696c00.dat"
        },
        {
            "children" : [
                3,
                4,
                5,
                7,
                12
            ],
            "name" : "73696c04.dat",
            "rotation" : [
                -0.4999997615814209,
                0.5000002384185791,
                0.5000002384185791,
                0.4999997317790985
            ],
            "translation" : [
                24,
                9.600003242492676,
                -64
            ]
        },
        {
            "children" : [
                0,
                1,
                2,
                13
            ],
            "name" : "Switch Left.ldr",
            "translation" : [
                -24,
                -2.9206275939941406e-06,
                -64
            ]
        }
    ],
    "animations" : [
        {
            "channels" : [
                {
                    "sampler" : 0,
                    "target" : {
                        "node" : 4,
                        "path" : "rotation"
                    }
                }
            ],
            "name" : "3245bp01.datAction",
            "samplers" : [
                {
                    "input" : 36,
                    "interpolation" : "LINEAR",
                    "output" : 37
                }
            ]
        },
        {
            "channels" : [
                {
                    "sampler" : 0,
                    "target" : {
                        "node" : 9,
                        "path" : "rotation"
                    }
                }
            ],
            "name" : "864.dat.001Action",
            "samplers" : [
                {
                    "input" : 36,
                    "interpolation" : "LINEAR",
                    "output" : 38
                }
            ]
        }
    ],
    "materials" : [
        {
            "doubleSided" : true,
            "emissiveFactor" : [
                1,
                1,
                1
            ],
            "emissiveTexture" : {
                "index" : 0
            },
            "name" : "Lego Standard",
            "pbrMetallicRoughness" : {
                "baseColorTexture" : {
                    "index" : 1
                },
                "metallicRoughnessTexture" : {
                    "index" : 2
                }
            }
        }
    ],
    "meshes" : [
        {
            "name" : "Mesh_3460.dat_8",
            "primitives" : [
                {
                    "attributes" : {
                        "POSITION" : 0,
                        "NORMAL" : 1,
                        "TEXCOORD_0" : 2
                    },
                    "indices" : 3,
                    "material" : 0
                }
            ]
        },
        {
            "name" : "Mesh_3034.dat_8",
            "primitives" : [
                {
                    "attributes" : {
                        "POSITION" : 4,
                        "NORMAL" : 5,
                        "TEXCOORD_0" : 6
                    },
                    "indices" : 7,
                    "material" : 0
                }
            ]
        },
        {
            "name" : "Mesh_3245bp01.dat_0",
            "primitives" : [
                {
                    "attributes" : {
                        "POSITION" : 8,
                        "NORMAL" : 9,
                        "TEXCOORD_0" : 10
                    },
                    "indices" : 11,
                    "material" : 0
                }
            ]
        },
        {
            "name" : "Mesh_3795.dat_8",
            "primitives" : [
                {
                    "attributes" : {
                        "POSITION" : 12,
                        "NORMAL" : 13,
                        "TEXCOORD_0" : 14
                    },
                    "indices" : 15,
                    "material" : 0
                }
            ]
        },
        {
            "name" : "Mesh_459b.dat_7",
            "primitives" : [
                {
                    "attributes" : {
                        "POSITION" : 16,
                        "NORMAL" : 17,
                        "TEXCOORD_0" : 18
                    },
                    "indices" : 19,
                    "material" : 0
                }
            ]
        },
        {
            "name" : "Mesh_864.dat_7",
            "primitives" : [
                {
                    "attributes" : {
                        "POSITION" : 20,
                        "NORMAL" : 21,
                        "TEXCOORD_0" : 22
                    },
                    "indices" : 23,
                    "material" : 0
                }
            ]
        },
        {
            "name" : "Mesh_864.dat_7.001",
            "primitives" : [
                {
                    "attributes" : {
                        "POSITION" : 24,
                        "NORMAL" : 25,
                        "TEXCOORD_0" : 26
                    },
                    "indices" : 27,
                    "material" : 0
                }
            ]
        },
        {
            "name" : "Mesh_u9033.dat_8",
            "primitives" : [
                {
                    "attributes" : {
                        "POSITION" : 28,
                        "NORMAL" : 29,
                        "TEXCOORD_0" : 30
                    },
                    "indices" : 31,
                    "material" : 0
                }
            ]
        },
        {
            "name" : "Mesh_u9035.dat_8",
            "primitives" : [
                {
                    "attributes" : {
                        "POSITION" : 32,
                        "NORMAL" : 33,
                        "TEXCOORD_0" : 34
                    },
                    "indices" : 35,
                    "material" : 0
                }
            ]
        }
    ],
    "textures" : [
        {
            "sampler" : 0,
            "source" : 0
        },
        {
            "sampler" : 1,
            "source" : 1
        },
        {
            "sampler" : 0,
            "source" : 2
        }
    ],
    "images" : [
        {
            "bufferView" : 4,
            "mimeType" : "image/png",
            "name" : "Image"
        },
        {
            "bufferView" : 5,
            "mimeType" : "image/png",
            "name" : "Image"
        },
        {
            "bufferView" : 6,
            "mimeType" : "image/png",
            "name" : "Image"
        }
    ],
    "accessors" : [
        {
            "bufferView" : 0,
            "componentType" : 5126,
            "count" : 681,
            "max" : [
                32,
                4,
                1.600000023841858
            ],
            "min" : [
                -32,
                -4,
                -3.200000047683716
            ],
            "type" : "VEC3"
        },
        {
            "bufferView" : 1,
            "componentType" : 5126,
            "count" : 681,
            "type" : "VEC3"
        },
        {
            "bufferView" : 2,
            "componentType" : 5126,
            "count" : 681,
            "type" : "VEC2"
        },
        {
            "bufferView" : 3,
            "componentType" : 5123,
            "count" : 1164,
            "type" : "SCALAR"
        },
        {
            "bufferView" : 7,
            "componentType" : 5126,
            "count" : 1305,
            "max" : [
                32,
                8,
                1.600000023841858
            ],
            "min" : [
                -32,
                -8,
                -3.200000047683716
            ],
            "type" : "VEC3"
        },
        {
            "bufferView" : 8,
            "componentType" : 5126,
            "count" : 1305,
            "type" : "VEC3"
        },
        {
            "bufferView" : 9,
            "componentType" : 5126,
            "count" : 1305,
            "type" : "VEC2"
        },
        {
            "bufferView" : 10,
            "componentType" : 5123,
            "count" : 2244,
            "type" : "SCALAR"
        },
        {
            "bufferView" : 11,
            "componentType" : 5126,
            "count" : 398,
            "max" : [
                8,
                4,
                1.600000023841858
            ],
            "min" : [
                -8,
                -4,
                -19.200000762939453
            ],
            "type" : "VEC3"
        },
        {
            "bufferView" : 12,
            "componentType" : 5126,
            "count" : 398,
            "type" : "VEC3"
        },
        {
            "bufferView" : 13,
            "componentType" : 5126,
            "count" : 398,
            "type" : "VEC2"
        },
        {
            "bufferView" : 14,
            "componentType" : 5123,
            "count" : 540,
            "type" : "SCALAR"
        },
        {
            "bufferView" : 15,
            "componentType" : 5126,
            "count" : 962,
            "max" : [
                24,
                8,
                1.600000023841858
            ],
            "min" : [
                -24,
                -8,
                -3.200000047683716
            ],
            "type" : "VEC3"
        },
        {
            "bufferView" : 16,
            "componentType" : 5126,
            "count" : 962,
            "type" : "VEC3"
        },
        {
            "bufferView" : 17,
            "componentType" : 5126,
            "count" : 962,
            "type" : "VEC2"
        },
        {
            "bufferView" : 18,
            "componentType" : 5123,
            "count" : 1668,
            "type" : "SCALAR"
        },
        {
            "bufferView" : 19,
            "componentType" : 5126,
            "count" : 3413,
            "max" : [
                32,
                16,
                3.200000047683716
            ],
            "min" : [
                -32,
                -16,
                -16
            ],
            "type" : "VEC3"
        },
        {
            "bufferView" : 20,
            "componentType" : 5126,
            "count" : 3413,
            "type" : "VEC3"
        },
        {
            "bufferView" : 21,
            "componentType" : 5126,
            "count" : 3413,
            "type" : "VEC2"
        },
        {
            "bufferView" : 22,
            "componentType" : 5123,
            "count" : 6096,
            "type" : "SCALAR"
        },
        {
            "bufferView" : 23,
            "componentType" : 5126,
            "count" : 25169,
            "max" : [
                131.1999969482422,
                88,
                0
            ],
            "min" : [
                -131.1999969482422,
                -24,
                -9.600000381469727
            ],
            "type" : "VEC3"
        },
        {
            "bufferView" : 24,
            "componentType" : 5126,
            "count" : 25169,
            "type" : "VEC3"
        },
        {
            "bufferView" : 25,
            "componentType" : 5126,
            "count" : 25169,
            "type" : "VEC2"
        },
        {
            "bufferView" : 26,
            "componentType" : 5123,
            "count" : 37113,
            "type" : "SCALAR"
        },
        {
            "bufferView" : 27,
            "componentType" : 5126,
            "count" : 229,
            "max" : [
                0.2928619384765625,
                0,
                0
            ],
            "min" : [
                -32.282630920410156,
                -5.929608345031738,
                -3.200000047683716
            ],
            "type" : "VEC3"
        },
        {
            "bufferView" : 28,
            "componentType" : 5126,
            "count" : 229,
            "type" : "VEC3"
        },
        {
            "bufferView" : 29,
            "componentType" : 5126,
            "count" : 229,
            "type" : "VEC2"
        },
        {
            "bufferView" : 30,
            "componentType" : 5123,
            "count" : 339,
            "type" : "SCALAR"
        },
        {
            "bufferView" : 31,
            "componentType" : 5126,
            "count" : 1547,
            "max" : [
                32,
                21.920400619506836,
                1.600000023841858
            ],
            "min" : [
                -63.87520217895508,
                -22.359600067138672,
                -3.200000047683716
            ],
            "type" : "VEC3"
        },
        {
            "bufferView" : 32,
            "componentType" : 5126,
            "count" : 1547,
            "type" : "VEC3"
        },
        {
            "bufferView" : 33,
            "componentType" : 5126,
            "count" : 1547,
            "type" : "VEC2"
        },
        {
            "bufferView" : 34,
            "componentType" : 5123,
            "count" : 2460,
            "type" : "SCALAR"
        },
        {
            "bufferView" : 35,
            "componentType" : 5126,
            "count" : 1049,
            "max" : [
                64,
                16,
                3.200000047683716
            ],
            "min" : [
                -40,
                -104,
                -3.200000047683716
            ],
            "type" : "VEC3"
        },
        {
            "bufferView" : 36,
            "componentType" : 5126,
            "count" : 1049,
            "type" : "VEC3"
        },
        {
            "bufferView" : 37,
            "componentType" : 5126,
            "count" : 1049,
            "type" : "VEC2"
        },
        {
            "bufferView" : 38,
            "componentType" : 5123,
            "count" : 1872,
            "type" : "SCALAR"
        },
        {
            "bufferView" : 39,
            "componentType" : 5126,
            "count" : 20,
            "max" : [
                0.8333333333333334
            ],
            "min" : [
                0.041666666666666664
            ],
            "type" : "SCALAR"
        },
        {
            "bufferView" : 40,
            "componentType" : 5126,
            "count" : 20,
            "type" : "VEC4"
        },
        {
            "bufferView" : 41,
            "componentType" : 5126,
            "count" : 20,
            "type" : "VEC4"
        }
    ],
    "bufferViews" : [
        {
            "buffer" : 0,
            "byteLength" : 8172,
            "byteOffset" : 0
        },
        {
            "buffer" : 0,
            "byteLength" : 8172,
            "byteOffset" : 8172
        },
        {
            "buffer" : 0,
            "byteLength" : 5448,
            "byteOffset" : 16344
        },
        {
            "buffer" : 0,
            "byteLength" : 2328,
            "byteOffset" : 21792
        },
        {
            "buffer" : 0,
            "byteLength" : 601,
            "byteOffset" : 24120
        },
        {
            "buffer" : 0,
            "byteLength" : 657,
            "byteOffset" : 24724
        },
        {
            "buffer" : 0,
            "byteLength" : 121,
            "byteOffset" : 25384
        },
        {
            "buffer" : 0,
            "byteLength" : 15660,
            "byteOffset" : 25508
        },
        {
            "buffer" : 0,
            "byteLength" : 15660,
            "byteOffset" : 41168
        },
        {
            "buffer" : 0,
            "byteLength" : 10440,
            "byteOffset" : 56828
        },
        {
            "buffer" : 0,
            "byteLength" : 4488,
            "byteOffset" : 67268
        },
        {
            "buffer" : 0,
            "byteLength" : 4776,
            "byteOffset" : 71756
        },
        {
            "buffer" : 0,
            "byteLength" : 4776,
            "byteOffset" : 76532
        },
        {
            "buffer" : 0,
            "byteLength" : 3184,
            "byteOffset" : 81308
        },
        {
            "buffer" : 0,
            "byteLength" : 1080,
            "byteOffset" : 84492
        },
        {
            "buffer" : 0,
            "byteLength" : 11544,
            "byteOffset" : 85572
        },
        {
            "buffer" : 0,
            "byteLength" : 11544,
            "byteOffset" : 97116
        },
        {
            "buffer" : 0,
            "byteLength" : 7696,
            "byteOffset" : 108660
        },
        {
            "buffer" : 0,
            "byteLength" : 3336,
            "byteOffset" : 116356
        },
        {
            "buffer" : 0,
            "byteLength" : 40956,
            "byteOffset" : 119692
        },
        {
            "buffer" : 0,
            "byteLength" : 40956,
            "byteOffset" : 160648
        },
        {
            "buffer" : 0,
            "byteLength" : 27304,
            "byteOffset" : 201604
        },
        {
            "buffer" : 0,
            "byteLength" : 12192,
            "byteOffset" : 228908
        },
        {
            "buffer" : 0,
            "byteLength" : 302028,
            "byteOffset" : 241100
        },
        {
            "buffer" : 0,
            "byteLength" : 302028,
            "byteOffset" : 543128
        },
        {
            "buffer" : 0,
            "byteLength" : 201352,
            "byteOffset" : 845156
        },
        {
            "buffer" : 0,
            "byteLength" : 74226,
            "byteOffset" : 1046508
        },
        {
            "buffer" : 0,
            "byteLength" : 2748,
            "byteOffset" : 1120736
        },
        {
            "buffer" : 0,
            "byteLength" : 2748,
            "byteOffset" : 1123484
        },
        {
            "buffer" : 0,
            "byteLength" : 1832,
            "byteOffset" : 1126232
        },
        {
            "buffer" : 0,
            "byteLength" : 678,
            "byteOffset" : 1128064
        },
        {
            "buffer" : 0,
            "byteLength" : 18564,
            "byteOffset" : 1128744
        },
        {
            "buffer" : 0,
            "byteLength" : 18564,
            "byteOffset" : 1147308
        },
        {
            "buffer" : 0,
            "byteLength" : 12376,
            "byteOffset" : 1165872
        },
        {
            "buffer" : 0,
            "byteLength" : 4920,
            "byteOffset" : 1178248
        },
        {
            "buffer" : 0,
            "byteLength" : 12588,
            "byteOffset" : 1183168
        },
        {
            "buffer" : 0,
            "byteLength" : 12588,
            "byteOffset" : 1195756
        },
        {
            "buffer" : 0,
            "byteLength" : 8392,
            "byteOffset" : 1208344
        },
        {
            "buffer" : 0,
            "byteLength" : 3744,
            "byteOffset" : 1216736
        },
        {
            "buffer" : 0,
            "byteLength" : 80,
            "byteOffset" : 1220480
        },
        {
            "buffer" : 0,
            "byteLength" : 320,
            "byteOffset" : 1220560
        },
        {
            "buffer" : 0,
            "byteLength" : 320,
            "byteOffset" : 1220880
        }
    ],
    "samplers" : [
        {
            "magFilter" : 9729,
            "minFilter" : 9987
        },
        {
            "magFilter" : 9728,
            "minFilter" : 9984
        }
    ],
    "buffers" : [
        {
            "byteLength" : 1221200,
            "uri" : "data:application/octet-stream;base64,"
        }
    ]
}
