{
    "asset" : {
        "generator" : "Khronos glTF Blender I/O v1.7.33",
        "version" : "2.0"
    },
    "extensionsUsed" : [
        "KHR_materials_transmission"
    ],
    "scene" : 0,
    "scenes" : [
        {
            "name" : "Scene",
            "nodes" : [
                0,
                8
            ]
        }
    ],
    "nodes" : [
        {
            "name" : "_Scale_1_38_mm",
            "translation" : [
                28,
                2,
                -64
            ]
        },
        {
            "mesh" : 0,
            "name" : "3228b.dat",
            "rotation" : [
                -0.5,
                0.5,
                0.5,
                0.4999999701976776
            ],
            "translation" : [
                -19.999988555908203,
                9.59999942779541,
                -32
            ]
        },
        {
            "mesh" : 0,
            "name" : "3228b.dat.001",
            "rotation" : [
                -0.5,
                0.5,
                0.5,
                0.4999999701976776
            ],
            "translation" : [
                20.000024795532227,
                9.59999942779541,
                -32
            ]
        },
        {
            "mesh" : 1,
            "name" : "3240b.dat",
            "rotation" : [
                -0.5,
                0.5,
                0.5,
                0.4999999701976776
            ],
            "translation" : [
                7.999999979801942e-06,
                9.59999942779541,
                -32.0000114440918
            ]
        },
        {
            "mesh" : 2,
            "name" : "3240b.dat.001",
            "rotation" : [
                -0.5,
                0.5,
                0.5,
                0.4999999701976776
            ],
            "translation" : [
                7.999999979801942e-06,
                9.59999942779541,
                -32.0000114440918
            ]
        },
        {
            "mesh" : 3,
            "name" : "3460.dat",
            "rotation" : [
                -0.7071068286895752,
                0,
                0,
                0.7071067094802856
            ],
            "translation" : [
                0,
                3.2000012397766113,
                28
            ]
        },
        {
            "mesh" : 3,
            "name" : "3460.dat.001",
            "rotation" : [
                -0.7071068286895752,
                0,
                0,
                0.7071067094802856
            ],
            "translation" : [
                1.9999999494757503e-05,
                3.199995994567871,
                -92
            ]
        },
        {
            "mesh" : 4,
            "name" : "767.dat",
            "rotation" : [
                -0.7071068286895752,
                0,
                0,
                0.7071067094802856
            ],
            "translation" : [
                0,
                3.199998617172241,
                -32.0000114440918
            ]
        },
        {
            "children" : [
                1,
                2,
                3,
                4,
                5,
                6,
                7
            ],
            "name" : "Track Straight.ldr",
            "translation" : [
                -1.1727213859558105e-05,
                0,
                -32
            ]
        }
    ],
    "materials" : [
        {
            "doubleSided" : true,
            "emissiveFactor" : [
                1,
                1,
                1
            ],
            "emissiveTexture" : {
                "index" : 0
            },
            "extensions" : {
                "KHR_materials_transmission" : {
                    "transmissionFactor" : 1,
                    "transmissionTexture" : {
                        "index" : 1
                    }
                }
            },
            "name" : "Lego Standard",
            "pbrMetallicRoughness" : {
                "baseColorTexture" : {
                    "index" : 2
                },
                "metallicRoughnessTexture" : {
                    "index" : 3
                }
            }
        }
    ],
    "meshes" : [
        {
            "name" : "Mesh_3228b.dat_7",
            "primitives" : [
                {
                    "attributes" : {
                        "POSITION" : 0,
                        "NORMAL" : 1,
                        "TEXCOORD_0" : 2
                    },
                    "indices" : 3,
                    "material" : 0
                }
            ]
        },
        {
            "name" : "Mesh_3240b.dat_7",
            "primitives" : [
                {
                    "attributes" : {
                        "POSITION" : 4,
                        "NORMAL" : 5,
                        "TEXCOORD_0" : 6
                    },
                    "indices" : 7,
                    "material" : 0
                }
            ]
        },
        {
            "name" : "Mesh_3240b.dat_7.002",
            "primitives" : [
                {
                    "attributes" : {
                        "POSITION" : 8,
                        "NORMAL" : 9,
                        "TEXCOORD_0" : 10
                    },
                    "indices" : 11,
                    "material" : 0
                }
            ]
        },
        {
            "name" : "Mesh_3460.dat_8",
            "primitives" : [
                {
                    "attributes" : {
                        "POSITION" : 12,
                        "NORMAL" : 13,
                        "TEXCOORD_0" : 14
                    },
                    "indices" : 15,
                    "material" : 0
                }
            ]
        },
        {
            "name" : "Mesh_767.dat_8",
            "primitives" : [
                {
                    "attributes" : {
                        "POSITION" : 16,
                        "NORMAL" : 17,
                        "TEXCOORD_0" : 18
                    },
                    "indices" : 19,
                    "material" : 0
                }
            ]
        }
    ],
    "textures" : [
        {
            "sampler" : 0,
            "source" : 0
        },
        {
            "sampler" : 0,
            "source" : 1
        },
        {
            "sampler" : 1,
            "source" : 2
        },
        {
            "sampler" : 0,
            "source" : 3
        }
    ],
    "images" : [
        {
            "bufferView" : 4,
            "mimeType" : "image/png",
            "name" : "lego-e"
        },
        {
            "bufferView" : 5,
            "mimeType" : "image/png",
            "name" : "lego-t"
        },
        {
            "bufferView" : 6,
            "mimeType" : "image/png",
            "name" : "lego-c"
        },
        {
            "bufferView" : 7,
            "mimeType" : "image/png",
            "name" : "lego-m-lego-r"
        }
    ],
    "accessors" : [
        {
            "bufferView" : 0,
            "componentType" : 5126,
            "count" : 48,
            "max" : [
                64,
                4,
                -3.8743019104003906e-07
            ],
            "min" : [
                -64,
                -4,
                -6.400000095367432
            ],
            "type" : "VEC3"
        },
        {
            "bufferView" : 1,
            "componentType" : 5126,
            "count" : 48,
            "type" : "VEC3"
        },
        {
            "bufferView" : 2,
            "componentType" : 5126,
            "count" : 48,
            "type" : "VEC2"
        },
        {
            "bufferView" : 3,
            "componentType" : 5123,
            "count" : 72,
            "type" : "SCALAR"
        },
        {
            "bufferView" : 8,
            "componentType" : 5126,
            "count" : 56,
            "max" : [
                64,
                6.40000057220459,
                1.528543120527491e-14
            ],
            "min" : [
                -64.00001525878906,
                -6.400000095367432,
                -3.200000047683716
            ],
            "type" : "VEC3"
        },
        {
            "bufferView" : 9,
            "componentType" : 5126,
            "count" : 56,
            "type" : "VEC3"
        },
        {
            "bufferView" : 10,
            "componentType" : 5126,
            "count" : 56,
            "type" : "VEC2"
        },
        {
            "bufferView" : 11,
            "componentType" : 5123,
            "count" : 84,
            "type" : "SCALAR"
        },
        {
            "bufferView" : 12,
            "componentType" : 5126,
            "count" : 54,
            "max" : [
                63.999977111816406,
                8,
                -1.600000023841858
            ],
            "min" : [
                -64,
                -8,
                -6.400075912475586
            ],
            "type" : "VEC3"
        },
        {
            "bufferView" : 13,
            "componentType" : 5126,
            "count" : 54,
            "type" : "VEC3"
        },
        {
            "bufferView" : 14,
            "componentType" : 5126,
            "count" : 54,
            "type" : "VEC2"
        },
        {
            "bufferView" : 15,
            "componentType" : 5123,
            "count" : 96,
            "type" : "SCALAR"
        },
        {
            "bufferView" : 16,
            "componentType" : 5126,
            "count" : 56,
            "max" : [
                32,
                4,
                0
            ],
            "min" : [
                -32,
                -4,
                -3.200000047683716
            ],
            "type" : "VEC3"
        },
        {
            "bufferView" : 17,
            "componentType" : 5126,
            "count" : 56,
            "type" : "VEC3"
        },
        {
            "bufferView" : 18,
            "componentType" : 5126,
            "count" : 56,
            "type" : "VEC2"
        },
        {
            "bufferView" : 19,
            "componentType" : 5123,
            "count" : 84,
            "type" : "SCALAR"
        },
        {
            "bufferView" : 20,
            "componentType" : 5126,
            "count" : 124,
            "max" : [
                32,
                8,
                0
            ],
            "min" : [
                -32,
                -8,
                -3.200000047683716
            ],
            "type" : "VEC3"
        },
        {
            "bufferView" : 21,
            "componentType" : 5126,
            "count" : 124,
            "type" : "VEC3"
        },
        {
            "bufferView" : 22,
            "componentType" : 5126,
            "count" : 124,
            "type" : "VEC2"
        },
        {
            "bufferView" : 23,
            "componentType" : 5123,
            "count" : 204,
            "type" : "SCALAR"
        }
    ],
    "bufferViews" : [
        {
            "buffer" : 0,
            "byteLength" : 576,
            "byteOffset" : 0
        },
        {
            "buffer" : 0,
            "byteLength" : 576,
            "byteOffset" : 576
        },
        {
            "buffer" : 0,
            "byteLength" : 384,
            "byteOffset" : 1152
        },
        {
            "buffer" : 0,
            "byteLength" : 144,
            "byteOffset" : 1536
        },
        {
            "buffer" : 0,
            "byteLength" : 611,
            "byteOffset" : 1680
        },
        {
            "buffer" : 0,
            "byteLength" : 601,
            "byteOffset" : 2292
        },
        {
            "buffer" : 0,
            "byteLength" : 672,
            "byteOffset" : 2896
        },
        {
            "buffer" : 0,
            "byteLength" : 121,
            "byteOffset" : 3568
        },
        {
            "buffer" : 0,
            "byteLength" : 672,
            "byteOffset" : 3692
        },
        {
            "buffer" : 0,
            "byteLength" : 672,
            "byteOffset" : 4364
        },
        {
            "buffer" : 0,
            "byteLength" : 448,
            "byteOffset" : 5036
        },
        {
            "buffer" : 0,
            "byteLength" : 168,
            "byteOffset" : 5484
        },
        {
            "buffer" : 0,
            "byteLength" : 648,
            "byteOffset" : 5652
        },
        {
            "buffer" : 0,
            "byteLength" : 648,
            "byteOffset" : 6300
        },
        {
            "buffer" : 0,
            "byteLength" : 432,
            "byteOffset" : 6948
        },
        {
            "buffer" : 0,
            "byteLength" : 192,
            "byteOffset" : 7380
        },
        {
            "buffer" : 0,
            "byteLength" : 672,
            "byteOffset" : 7572
        },
        {
            "buffer" : 0,
            "byteLength" : 672,
            "byteOffset" : 8244
        },
        {
            "buffer" : 0,
            "byteLength" : 448,
            "byteOffset" : 8916
        },
        {
            "buffer" : 0,
            "byteLength" : 168,
            "byteOffset" : 9364
        },
        {
            "buffer" : 0,
            "byteLength" : 1488,
            "byteOffset" : 9532
        },
        {
            "buffer" : 0,
            "byteLength" : 1488,
            "byteOffset" : 11020
        },
        {
            "buffer" : 0,
            "byteLength" : 992,
            "byteOffset" : 12508
        },
        {
            "buffer" : 0,
            "byteLength" : 408,
            "byteOffset" : 13500
        }
    ],
    "samplers" : [
        {
            "magFilter" : 9729,
            "minFilter" : 9987
        },
        {
            "magFilter" : 9728,
            "minFilter" : 9984
        }
    ],
    "buffers" : [
        {
            "byteLength" : 13908,
            "uri" : "data:application/octet-stream;base64,"
        }
    ]
}
