{
    "asset" : {
        "generator" : "Khronos glTF Blender I/O v1.7.33",
        "version" : "2.0"
    },
    "extensionsUsed" : [
        "KHR_materials_transmission"
    ],
    "scene" : 0,
    "scenes" : [
        {
            "name" : "Scene",
            "nodes" : [
                6
            ]
        }
    ],
    "nodes" : [
        {
            "mesh" : 0,
            "name" : "3460.dat",
            "rotation" : [
                -0.5,
                0.5,
                0.5,
                0.4999999701976776
            ],
            "translation" : [
                -68,
                3.2000010013580322,
                24
            ]
        },
        {
            "mesh" : 0,
            "name" : "3460.dat.001",
            "rotation" : [
                0,
                0.7071067094802856,
                0.7071068286895752,
                -3.0908616110991716e-08
            ],
            "translation" : [
                -8.000003814697266,
                3.199998378753662,
                -36
            ]
        },
        {
            "mesh" : 0,
            "name" : "3460.dat.002",
            "rotation" : [
                -0.5,
                -0.5,
                -0.5,
                0.4999999701976776
            ],
            "translation" : [
                52,
                3.2000010013580322,
                24
            ]
        },
        {
            "mesh" : 0,
            "name" : "3460.dat.003",
            "rotation" : [
                -0.7071068286895752,
                0,
                0,
                0.7071067094802856
            ],
            "scale" : [
                1.0000150203704834,
                1.0000150203704834,
                1
            ],
            "translation" : [
                -8.00048828125,
                3.2000036239624023,
                84.00092315673828
            ]
        },
        {
            "mesh" : 1,
            "name" : "992.dat",
            "rotation" : [
                -0.7071068286895752,
                0,
                0,
                0.7071067094802856
            ],
            "translation" : [
                -8,
                9.600001335144043,
                24
            ]
        },
        {
            "mesh" : 2,
            "name" : "992.dat.001",
            "rotation" : [
                -0.7071068286895752,
                0,
                0,
                0.7071067094802856
            ],
            "translation" : [
                -8,
                9.600001335144043,
                24
            ]
        },
        {
            "children" : [
                0,
                1,
                2,
                3,
                4,
                5
            ],
            "name" : "Crossing.ldr",
            "translation" : [
                8,
                0,
                -88
            ]
        }
    ],
    "materials" : [
        {
            "doubleSided" : true,
            "emissiveFactor" : [
                1,
                1,
                1
            ],
            "emissiveTexture" : {
                "index" : 0
            },
            "extensions" : {
                "KHR_materials_transmission" : {
                    "transmissionFactor" : 1,
                    "transmissionTexture" : {
                        "index" : 1
                    }
                }
            },
            "name" : "Lego Standard.001",
            "pbrMetallicRoughness" : {
                "baseColorTexture" : {
                    "index" : 2
                },
                "metallicRoughnessTexture" : {
                    "index" : 3
                }
            }
        }
    ],
    "meshes" : [
        {
            "name" : "Mesh_3460.dat_72",
            "primitives" : [
                {
                    "attributes" : {
                        "POSITION" : 0,
                        "NORMAL" : 1,
                        "TEXCOORD_0" : 2
                    },
                    "indices" : 3,
                    "material" : 0
                }
            ]
        },
        {
            "name" : "Mesh_992.dat_7",
            "primitives" : [
                {
                    "attributes" : {
                        "POSITION" : 4,
                        "NORMAL" : 5,
                        "TEXCOORD_0" : 6
                    },
                    "indices" : 7,
                    "material" : 0
                }
            ]
        },
        {
            "name" : "Mesh_992.dat_7.001",
            "primitives" : [
                {
                    "attributes" : {
                        "POSITION" : 8,
                        "NORMAL" : 9,
                        "TEXCOORD_0" : 10
                    },
                    "indices" : 11,
                    "material" : 0
                }
            ]
        }
    ],
    "textures" : [
        {
            "sampler" : 0,
            "source" : 0
        },
        {
            "sampler" : 0,
            "source" : 1
        },
        {
            "sampler" : 0,
            "source" : 2
        },
        {
            "sampler" : 0,
            "source" : 3
        }
    ],
    "images" : [
        {
            "bufferView" : 4,
            "mimeType" : "image/png",
            "name" : "lego-e"
        },
        {
            "bufferView" : 5,
            "mimeType" : "image/png",
            "name" : "lego-t"
        },
        {
            "bufferView" : 6,
            "mimeType" : "image/png",
            "name" : "lego-c"
        },
        {
            "bufferView" : 7,
            "mimeType" : "image/png",
            "name" : "lego-m.png-lego-r.png"
        }
    ],
    "accessors" : [
        {
            "bufferView" : 0,
            "componentType" : 5126,
            "count" : 677,
            "max" : [
                32,
                4,
                1.600000023841858
            ],
            "min" : [
                -32,
                -4,
                -3.200000047683716
            ],
            "type" : "VEC3"
        },
        {
            "bufferView" : 1,
            "componentType" : 5126,
            "count" : 677,
            "type" : "VEC3"
        },
        {
            "bufferView" : 2,
            "componentType" : 5126,
            "count" : 677,
            "type" : "VEC2"
        },
        {
            "bufferView" : 3,
            "componentType" : 5123,
            "count" : 1164,
            "type" : "SCALAR"
        },
        {
            "bufferView" : 8,
            "componentType" : 5126,
            "count" : 2206,
            "max" : [
                67.19999694824219,
                67.19999694824219,
                0
            ],
            "min" : [
                -67.19999694824219,
                -67.19999694824219,
                -5.800000190734863
            ],
            "type" : "VEC3"
        },
        {
            "bufferView" : 9,
            "componentType" : 5126,
            "count" : 2206,
            "type" : "VEC3"
        },
        {
            "bufferView" : 10,
            "componentType" : 5126,
            "count" : 2206,
            "type" : "VEC2"
        },
        {
            "bufferView" : 11,
            "componentType" : 5123,
            "count" : 3552,
            "type" : "SCALAR"
        },
        {
            "bufferView" : 12,
            "componentType" : 5126,
            "count" : 7832,
            "max" : [
                64,
                64,
                0
            ],
            "min" : [
                -64,
                -64,
                -6.400000095367432
            ],
            "type" : "VEC3"
        },
        {
            "bufferView" : 13,
            "componentType" : 5126,
            "count" : 7832,
            "type" : "VEC3"
        },
        {
            "bufferView" : 14,
            "componentType" : 5126,
            "count" : 7832,
            "type" : "VEC2"
        },
        {
            "bufferView" : 15,
            "componentType" : 5123,
            "count" : 11784,
            "type" : "SCALAR"
        }
    ],
    "bufferViews" : [
        {
            "buffer" : 0,
            "byteLength" : 8124,
            "byteOffset" : 0
        },
        {
            "buffer" : 0,
            "byteLength" : 8124,
            "byteOffset" : 8124
        },
        {
            "buffer" : 0,
            "byteLength" : 5416,
            "byteOffset" : 16248
        },
        {
            "buffer" : 0,
            "byteLength" : 2328,
            "byteOffset" : 21664
        },
        {
            "buffer" : 0,
            "byteLength" : 601,
            "byteOffset" : 23992
        },
        {
            "buffer" : 0,
            "byteLength" : 601,
            "byteOffset" : 24596
        },
        {
            "buffer" : 0,
            "byteLength" : 657,
            "byteOffset" : 25200
        },
        {
            "buffer" : 0,
            "byteLength" : 121,
            "byteOffset" : 25860
        },
        {
            "buffer" : 0,
            "byteLength" : 26472,
            "byteOffset" : 25984
        },
        {
            "buffer" : 0,
            "byteLength" : 26472,
            "byteOffset" : 52456
        },
        {
            "buffer" : 0,
            "byteLength" : 17648,
            "byteOffset" : 78928
        },
        {
            "buffer" : 0,
            "byteLength" : 7104,
            "byteOffset" : 96576
        },
        {
            "buffer" : 0,
            "byteLength" : 93984,
            "byteOffset" : 103680
        },
        {
            "buffer" : 0,
            "byteLength" : 93984,
            "byteOffset" : 197664
        },
        {
            "buffer" : 0,
            "byteLength" : 62656,
            "byteOffset" : 291648
        },
        {
            "buffer" : 0,
            "byteLength" : 23568,
            "byteOffset" : 354304
        }
    ],
    "samplers" : [
        {
            "magFilter" : 9728,
            "minFilter" : 9984
        }
    ],
    "buffers" : [
        {
            "byteLength" : 377872,
            "uri" : "data:application/octet-stream;base64,"
        }
    ]
}
